<?xml version="1.0" encoding="utf-8"?>
<!-- Generator: Adobe Illustrator 15.0.2, SVG Export Plug-In  -->
<!DOCTYPE svg PUBLIC "-//W3C//DTD SVG 1.1//EN" "http://www.w3.org/Graphics/SVG/1.1/DTD/svg11.dtd" [
	<!ENTITY ns_flows "http://ns.adobe.com/Flows/1.0/">
]>
<svg version="1.1"
	 xmlns="http://www.w3.org/2000/svg" xmlns:xlink="http://www.w3.org/1999/xlink" xmlns:a="http://ns.adobe.com/AdobeSVGViewerExtensions/3.0/"
	 x="0px" y="0px" width="76px" height="61px" viewBox="0 0 76 61" enable-background="new 0 0 76 61" xml:space="preserve">
<defs>
</defs>
<rect fill="none" width="76" height="60.666"/>
<path fill="#FFFFFF" d="M2.505,33.74c2.322-2.23,4.438-5.272,5.998-8.869c1.561-3.6,2.337-7.225,2.379-10.446l-0.029,0.025
	c-2.313,2.23-4.419,5.264-5.975,8.849C3.323,26.885,2.548,30.494,2.5,33.706L2.505,33.74"/>
<path fill="#FFFFFF" d="M5.488,38.572c3.136-3.038,5.987-7.173,8.084-12.059c2.097-4.89,3.129-9.807,3.169-14.176l-0.04,0.035
	c-3.124,3.035-5.963,7.159-8.053,12.029C6.561,29.271,5.528,34.17,5.48,38.524L5.488,38.572"/>
<path fill="#FFFFFF" d="M9.587,44.726c4.135-4.042,7.888-9.535,10.637-16.02c2.75-6.487,4.088-13.008,4.117-18.794l-0.053,0.047
	c-4.119,4.038-7.856,9.517-10.596,15.979c-2.739,6.461-4.078,12.955-4.116,18.724L9.587,44.726"/>
<path fill="#FFFFFF" d="M14.825,53.333c5.641-5.476,10.767-12.925,14.532-21.725c3.769-8.805,5.618-17.661,5.683-25.525
	l-0.071,0.063c-5.617,5.47-10.724,12.898-14.477,21.668c-3.753,8.771-5.596,17.669-5.675,25.509L14.825,53.333"/>
<path fill="#FFFFFF" d="M39.291,39.355h-0.005c-0.911,0-1.766-0.106-2.54-0.316c-0.791-0.215-1.485-0.563-2.063-1.033
	c-0.585-0.476-1.044-1.095-1.362-1.84c-0.3-0.706-0.453-1.555-0.453-2.523l0.006-0.479h1.111v0.341c0,0.881,0.13,1.631,0.387,2.229
	c0.252,0.591,0.611,1.078,1.066,1.448c0.462,0.375,1.02,0.65,1.658,0.816c1.154,0.305,2.607,0.368,3.931,0.063
	c0.563-0.129,1.072-0.337,1.518-0.619c0.44-0.281,0.787-0.632,1.06-1.069c0.261-0.422,0.394-0.94,0.394-1.54
	c0-0.706-0.149-1.265-0.444-1.659c-0.308-0.413-0.707-0.745-1.188-0.989c-0.499-0.252-1.064-0.448-1.681-0.581
	c-0.65-0.137-1.273-0.279-1.871-0.425c-0.625-0.146-1.252-0.298-1.877-0.458c-0.654-0.168-1.25-0.403-1.771-0.699
	c-0.547-0.308-0.993-0.726-1.327-1.244c-0.34-0.525-0.512-1.207-0.512-2.025c0-0.829,0.179-1.538,0.531-2.107
	c0.346-0.559,0.802-1.011,1.355-1.344c0.54-0.323,1.15-0.557,1.815-0.694c1.466-0.302,2.952-0.255,4.163,0.059
	c0.687,0.177,1.299,0.468,1.82,0.865c0.525,0.4,0.951,0.933,1.265,1.582c0.309,0.638,0.488,1.426,0.535,2.341l0.015,0.357h-1.117
	l-0.015-0.326c-0.027-0.751-0.166-1.382-0.411-1.879c-0.249-0.502-0.566-0.898-0.97-1.21c-0.401-0.31-0.89-0.534-1.45-0.667
	c-1.032-0.246-2.219-0.292-3.495-0.051c-0.541,0.102-1.036,0.282-1.47,0.537c-0.423,0.247-0.778,0.582-1.054,0.995
	c-0.266,0.399-0.4,0.918-0.401,1.542c0,0.62,0.136,1.116,0.402,1.474c0.28,0.378,0.651,0.689,1.104,0.926
	c0.474,0.247,1.022,0.442,1.627,0.58c0.64,0.146,1.296,0.298,1.967,0.458c0.73,0.19,1.418,0.372,2.065,0.547
	c0.672,0.181,1.27,0.427,1.775,0.733c0.527,0.319,0.951,0.748,1.261,1.272c0.316,0.536,0.471,1.227,0.472,2.112
	c0,0.8-0.178,1.497-0.528,2.071c-0.345,0.563-0.805,1.036-1.368,1.404c-0.554,0.361-1.184,0.626-1.873,0.787
	C40.669,39.275,39.978,39.355,39.291,39.355z M33.368,33.664c0.002,0.893,0.141,1.668,0.413,2.306
	c0.286,0.67,0.696,1.225,1.218,1.647c0.524,0.427,1.156,0.743,1.879,0.939c0.731,0.198,1.542,0.299,2.409,0.299h0.005
	c0.648,0,1.302-0.075,1.941-0.224c0.632-0.148,1.208-0.391,1.713-0.72c0.501-0.327,0.909-0.746,1.215-1.245
	c0.302-0.495,0.455-1.104,0.455-1.812c-0.001-0.782-0.137-1.407-0.402-1.858c-0.267-0.453-0.633-0.822-1.089-1.099
	c-0.466-0.281-1.02-0.51-1.647-0.679c-0.646-0.174-1.331-0.356-2.056-0.544c-0.665-0.159-1.318-0.311-1.957-0.457
	c-0.647-0.146-1.235-0.356-1.748-0.624c-0.52-0.272-0.949-0.632-1.273-1.071c-0.332-0.445-0.5-1.042-0.5-1.772
	c0-0.725,0.164-1.337,0.485-1.82c0.319-0.477,0.729-0.863,1.218-1.148c0.484-0.283,1.032-0.484,1.629-0.596
	c1.345-0.254,2.604-0.207,3.703,0.056c0.631,0.15,1.183,0.405,1.64,0.758c0.46,0.354,0.834,0.82,1.112,1.384
	c0.26,0.525,0.413,1.172,0.456,1.926h0.115c-0.056-0.775-0.215-1.441-0.476-1.981c-0.278-0.578-0.655-1.05-1.117-1.402
	c-0.468-0.356-1.021-0.618-1.643-0.778c-1.139-0.295-2.544-0.341-3.937-0.054c-0.61,0.126-1.168,0.339-1.659,0.633
	c-0.484,0.292-0.884,0.688-1.188,1.178c-0.302,0.488-0.456,1.109-0.456,1.844c0,0.721,0.146,1.311,0.432,1.754
	c0.29,0.449,0.677,0.812,1.153,1.08c0.484,0.274,1.039,0.493,1.65,0.649c0.623,0.16,1.246,0.311,1.87,0.457
	c0.595,0.146,1.214,0.287,1.859,0.423c0.659,0.142,1.266,0.352,1.803,0.625c0.55,0.278,1.008,0.661,1.361,1.136
	c0.361,0.482,0.544,1.142,0.544,1.958c0,0.694-0.158,1.301-0.469,1.804c-0.309,0.496-0.717,0.908-1.216,1.228
	c-0.494,0.313-1.057,0.543-1.674,0.685c-1.429,0.328-2.958,0.252-4.17-0.066c-0.706-0.186-1.327-0.492-1.845-0.912
	c-0.52-0.423-0.927-0.975-1.211-1.641c-0.267-0.624-0.41-1.386-0.425-2.267H33.368z"/>
<path fill="#FFFFFF" d="M43.506,25.497c-0.264-0.533-0.609-0.964-1.041-1.297s-0.945-0.57-1.545-0.713
	c-0.602-0.144-1.248-0.216-1.938-0.216c-0.532,0-1.085,0.054-1.661,0.162c-0.572,0.107-1.088,0.296-1.55,0.566
	c-0.46,0.269-0.838,0.626-1.136,1.071c-0.293,0.44-0.442,0.998-0.443,1.682c0,0.685,0.153,1.223,0.451,1.623
	c0.304,0.41,0.699,0.742,1.188,0.998c0.493,0.257,1.055,0.458,1.688,0.602c0.639,0.146,1.293,0.298,1.963,0.458
	c0.726,0.188,1.412,0.37,2.059,0.545c0.653,0.176,1.224,0.411,1.712,0.706c0.491,0.298,0.885,0.694,1.174,1.186
	c0.295,0.499,0.437,1.162,0.438,1.985c0,0.753-0.163,1.402-0.492,1.941c-0.326,0.534-0.758,0.977-1.291,1.325
	c-0.532,0.347-1.131,0.598-1.793,0.753c-0.66,0.153-1.325,0.23-1.998,0.23h-0.005c-0.893,0-1.718-0.103-2.474-0.308
	c-0.758-0.206-1.417-0.535-1.971-0.986c-0.557-0.452-0.987-1.035-1.29-1.744c-0.29-0.68-0.433-1.487-0.433-2.425
	c0-0.046,0-0.093,0.001-0.139l0.001-0.09h0.615v0.091c0,0.921,0.136,1.696,0.407,2.328c0.271,0.634,0.65,1.146,1.139,1.544
	c0.49,0.397,1.073,0.687,1.752,0.864c0.68,0.18,1.432,0.271,2.253,0.27c0.603,0,1.202-0.067,1.798-0.205
	c0.594-0.136,1.125-0.354,1.595-0.651c0.468-0.299,0.847-0.68,1.138-1.148c0.286-0.462,0.432-1.018,0.432-1.672
	c0-0.771-0.168-1.372-0.494-1.809c-0.332-0.446-0.756-0.8-1.274-1.063c-0.522-0.265-1.103-0.465-1.741-0.603
	c-0.648-0.137-1.27-0.278-1.864-0.424c-0.626-0.146-1.251-0.298-1.875-0.458c-0.632-0.162-1.202-0.386-1.71-0.674
	c-0.513-0.289-0.928-0.678-1.24-1.162c-0.317-0.49-0.472-1.122-0.472-1.89c0-0.781,0.163-1.441,0.493-1.976
	c0.326-0.526,0.751-0.947,1.272-1.261c0.517-0.31,1.097-0.531,1.737-0.664c0.638-0.131,1.272-0.197,1.903-0.197
	c0.776,0,1.491,0.084,2.146,0.254c0.655,0.169,1.233,0.442,1.731,0.821c0.497,0.379,0.895,0.878,1.191,1.492
	c0.297,0.615,0.465,1.364,0.51,2.245l0.004,0.095h-0.617l-0.004-0.087C43.914,26.686,43.768,26.026,43.506,25.497"/>
<path fill="#FFFFFF" d="M45.806,39.008V22.775h7.028c0.639,0,1.246,0.085,1.807,0.254c0.571,0.172,1.08,0.439,1.512,0.792
	c0.438,0.358,0.783,0.805,1.029,1.329c0.245,0.52,0.369,1.14,0.369,1.843c0,0.504-0.093,0.994-0.274,1.453
	c-0.182,0.46-0.435,0.869-0.75,1.215c-0.318,0.35-0.7,0.635-1.137,0.85c-0.005,0.002-0.01,0.005-0.015,0.007
	c0.041,0.015,0.081,0.03,0.121,0.046c0.499,0.198,0.938,0.479,1.308,0.833c0.37,0.354,0.671,0.794,0.895,1.308
	c0.222,0.515,0.333,1.099,0.332,1.736c0.001,0.74-0.139,1.409-0.414,1.987c-0.277,0.578-0.666,1.063-1.156,1.44
	c-0.48,0.372-1.065,0.659-1.736,0.853c-0.658,0.189-1.382,0.286-2.151,0.286H45.806z M52.768,37.891
	c0.605,0,1.172-0.073,1.684-0.216c0.5-0.141,0.937-0.354,1.297-0.637c0.357-0.279,0.644-0.636,0.852-1.06
	c0.209-0.424,0.314-0.934,0.314-1.515c0-0.623-0.114-1.147-0.34-1.558c-0.228-0.416-0.529-0.758-0.897-1.018
	c-0.377-0.265-0.814-0.459-1.302-0.58c-0.502-0.124-1.021-0.186-1.541-0.186l-5.911-0.001v6.769H52.768z M52.834,30.007
	c0.488-0.001,0.958-0.066,1.396-0.193c0.429-0.125,0.812-0.318,1.137-0.574c0.328-0.255,0.582-0.564,0.779-0.944
	c0.191-0.372,0.289-0.81,0.289-1.302c0-0.541-0.092-1.008-0.272-1.39c-0.184-0.385-0.427-0.695-0.743-0.946
	c-0.319-0.254-0.7-0.446-1.135-0.571c-0.443-0.128-0.933-0.193-1.451-0.194h-5.911v6.115H52.834z"/>
<path fill="#FFFFFF" d="M52.834,23.025c0.617,0,1.195,0.081,1.734,0.243c0.541,0.163,1.017,0.411,1.426,0.746
	c0.41,0.336,0.73,0.75,0.961,1.241c0.232,0.493,0.346,1.072,0.346,1.737c0,0.476-0.086,0.93-0.257,1.361s-0.404,0.812-0.702,1.139
	c-0.299,0.328-0.653,0.593-1.063,0.794c-0.24,0.118-0.494,0.206-0.762,0.265c0.305,0.05,0.601,0.132,0.887,0.245
	c0.467,0.186,0.877,0.445,1.227,0.781c0.351,0.335,0.629,0.745,0.838,1.227c0.209,0.485,0.313,1.031,0.312,1.637
	c0.001,0.708-0.13,1.335-0.39,1.88c-0.26,0.541-0.621,0.993-1.083,1.35c-0.46,0.356-1.012,0.626-1.653,0.811
	c-0.64,0.185-1.335,0.276-2.082,0.276h-6.517V23.025H52.834 M52.768,38.141c0.632,0,1.215-0.075,1.751-0.226
	c0.534-0.149,0.995-0.376,1.384-0.681c0.389-0.304,0.695-0.685,0.922-1.146c0.225-0.457,0.34-0.997,0.34-1.625
	c0-0.672-0.125-1.23-0.371-1.678c-0.247-0.453-0.571-0.819-0.973-1.102c-0.404-0.284-0.867-0.49-1.386-0.618
	c-0.523-0.129-1.057-0.193-1.601-0.193l-6.161-0.001v7.269H52.768 M52.834,30.256c0.514,0,1.002-0.067,1.466-0.202
	c0.461-0.135,0.868-0.34,1.222-0.617c0.354-0.275,0.635-0.616,0.847-1.026c0.21-0.406,0.317-0.878,0.317-1.417
	c0-0.585-0.101-1.083-0.297-1.497c-0.198-0.417-0.468-0.761-0.813-1.035c-0.346-0.275-0.752-0.48-1.221-0.615
	c-0.471-0.136-0.978-0.203-1.521-0.204h-6.161v6.615L52.834,30.256"/>
<path fill="#FFFFFF" d="M64.921,39.355c-0.911,0-1.766-0.106-2.539-0.316c-0.789-0.214-1.483-0.563-2.064-1.034
	c-0.585-0.475-1.043-1.094-1.361-1.839c-0.301-0.703-0.453-1.552-0.453-2.523l0.009-0.479h1.109v0.341
	c0,0.881,0.13,1.632,0.386,2.229c0.251,0.589,0.609,1.076,1.067,1.448c0.461,0.375,1.019,0.649,1.657,0.816
	c1.143,0.301,2.584,0.374,3.932,0.063c0.559-0.127,1.069-0.336,1.518-0.619c0.434-0.277,0.789-0.637,1.057-1.069
	c0.267-0.427,0.396-0.931,0.396-1.54c0-0.706-0.149-1.264-0.443-1.659c-0.309-0.413-0.708-0.745-1.188-0.988
	c-0.499-0.253-1.064-0.449-1.682-0.582c-0.649-0.137-1.273-0.28-1.87-0.425c-0.626-0.146-1.253-0.298-1.88-0.459
	c-0.65-0.167-1.245-0.402-1.77-0.698c-0.546-0.308-0.993-0.726-1.327-1.244c-0.34-0.525-0.513-1.207-0.513-2.025
	c0-0.831,0.179-1.54,0.532-2.107c0.346-0.559,0.802-1.011,1.354-1.342c0.541-0.324,1.151-0.558,1.814-0.695
	c1.466-0.301,2.954-0.255,4.162,0.059c0.688,0.177,1.3,0.468,1.82,0.865c0.525,0.399,0.951,0.931,1.266,1.582
	c0.309,0.638,0.488,1.426,0.535,2.341l0.015,0.357h-1.12l-0.011-0.329c-0.027-0.746-0.166-1.378-0.412-1.876
	c-0.244-0.494-0.57-0.901-0.97-1.209c-0.401-0.31-0.89-0.534-1.449-0.667c-1.032-0.246-2.221-0.292-3.497-0.051
	c-0.539,0.101-1.033,0.281-1.468,0.537c-0.424,0.246-0.778,0.581-1.056,0.995c-0.265,0.399-0.399,0.918-0.399,1.542
	c0,0.621,0.135,1.116,0.4,1.474c0.284,0.384,0.646,0.687,1.104,0.926c0.477,0.247,1.024,0.442,1.629,0.58
	c0.641,0.146,1.295,0.298,1.965,0.458c0.731,0.19,1.419,0.372,2.067,0.547c0.672,0.181,1.269,0.428,1.774,0.733
	c0.526,0.318,0.95,0.747,1.26,1.272c0.313,0.53,0.473,1.241,0.473,2.112c0,0.801-0.178,1.499-0.529,2.073
	c-0.344,0.563-0.804,1.034-1.367,1.402c-0.552,0.36-1.182,0.625-1.873,0.787C66.304,39.275,65.61,39.355,64.921,39.355z
	 M59.003,33.664c0.002,0.895,0.141,1.67,0.412,2.305c0.287,0.671,0.696,1.225,1.217,1.647c0.527,0.429,1.16,0.745,1.881,0.94
	c1.281,0.348,2.864,0.422,4.354,0.075c0.634-0.149,1.211-0.391,1.713-0.719c0.501-0.327,0.909-0.747,1.215-1.246
	c0.302-0.494,0.455-1.104,0.455-1.812c0-0.781-0.136-1.406-0.402-1.858c-0.269-0.454-0.635-0.823-1.089-1.099
	c-0.466-0.281-1.02-0.51-1.646-0.679c-0.646-0.174-1.332-0.356-2.058-0.544c-0.664-0.159-1.316-0.311-1.955-0.457
	c-0.646-0.146-1.234-0.356-1.748-0.624c-0.521-0.271-0.949-0.632-1.274-1.071c-0.331-0.445-0.499-1.042-0.499-1.772
	c0-0.724,0.162-1.336,0.483-1.82c0.32-0.479,0.73-0.865,1.219-1.149c0.484-0.285,1.033-0.485,1.629-0.596
	c1.346-0.252,2.604-0.207,3.704,0.056c0.63,0.15,1.182,0.405,1.639,0.758c0.461,0.355,0.835,0.82,1.113,1.384
	c0.26,0.527,0.413,1.174,0.456,1.926h0.114c-0.056-0.775-0.215-1.441-0.476-1.981c-0.279-0.58-0.656-1.051-1.118-1.402
	c-0.467-0.356-1.02-0.618-1.643-0.778c-1.137-0.296-2.548-0.34-3.936-0.053c-0.608,0.125-1.166,0.338-1.658,0.634
	c-0.484,0.29-0.884,0.686-1.188,1.177c-0.304,0.488-0.457,1.108-0.457,1.844c0,0.72,0.146,1.311,0.433,1.754
	c0.29,0.449,0.678,0.813,1.153,1.08c0.485,0.275,1.04,0.493,1.648,0.649c0.623,0.16,1.246,0.311,1.87,0.457
	c0.595,0.145,1.215,0.287,1.859,0.423c0.66,0.142,1.267,0.353,1.804,0.625c0.548,0.277,1.007,0.659,1.361,1.135
	c0.36,0.483,0.543,1.143,0.543,1.958c0,0.695-0.158,1.303-0.471,1.804c-0.307,0.496-0.715,0.909-1.213,1.228
	c-0.498,0.314-1.061,0.545-1.674,0.685c-1.425,0.327-2.951,0.254-4.171-0.066c-0.708-0.186-1.329-0.492-1.846-0.912
	c-0.521-0.425-0.929-0.977-1.212-1.641c-0.267-0.623-0.409-1.385-0.425-2.267H59.003z"/>
<path fill="#FFFFFF" d="M69.142,25.497c-0.264-0.533-0.61-0.964-1.042-1.297s-0.945-0.57-1.544-0.713
	c-0.603-0.144-1.249-0.216-1.939-0.216c-0.531,0-1.085,0.054-1.661,0.162c-0.571,0.106-1.088,0.296-1.549,0.566
	c-0.461,0.269-0.838,0.626-1.137,1.071c-0.292,0.44-0.441,0.998-0.441,1.682c0,0.685,0.152,1.223,0.45,1.623
	c0.304,0.41,0.698,0.742,1.188,0.998c0.494,0.257,1.056,0.458,1.688,0.602c0.64,0.146,1.293,0.298,1.962,0.458
	c0.727,0.188,1.413,0.37,2.061,0.545c0.652,0.176,1.223,0.411,1.711,0.706c0.491,0.298,0.884,0.694,1.174,1.186
	c0.295,0.499,0.438,1.162,0.438,1.985c0,0.753-0.162,1.402-0.492,1.942c-0.326,0.533-0.758,0.976-1.291,1.324
	c-0.532,0.348-1.131,0.598-1.793,0.753c-0.66,0.153-1.328,0.23-2.003,0.23c-0.893,0-1.718-0.103-2.474-0.308
	c-0.759-0.206-1.416-0.535-1.973-0.987c-0.556-0.451-0.986-1.035-1.289-1.743c-0.29-0.679-0.433-1.487-0.433-2.425
	c0-0.046,0-0.093,0.001-0.14l0.002-0.089h0.615v0.091c0,0.921,0.136,1.696,0.406,2.328c0.27,0.634,0.65,1.146,1.139,1.544
	c0.49,0.398,1.072,0.687,1.752,0.864c0.682,0.18,1.432,0.27,2.253,0.27c0.603,0,1.202-0.067,1.799-0.205
	c0.593-0.135,1.124-0.354,1.595-0.651c0.467-0.298,0.846-0.68,1.136-1.148c0.288-0.463,0.433-1.018,0.433-1.672
	c0-0.771-0.168-1.372-0.493-1.809c-0.333-0.446-0.757-0.8-1.274-1.062c-0.523-0.266-1.104-0.466-1.742-0.604
	c-0.647-0.137-1.27-0.279-1.864-0.424c-0.626-0.146-1.251-0.298-1.876-0.458c-0.631-0.162-1.201-0.387-1.709-0.674
	c-0.514-0.289-0.928-0.678-1.24-1.162c-0.317-0.49-0.473-1.122-0.473-1.89c0-0.781,0.162-1.441,0.494-1.976
	c0.325-0.525,0.75-0.947,1.271-1.26c0.518-0.311,1.096-0.532,1.736-0.664c0.639-0.132,1.272-0.198,1.903-0.198
	c0.776,0,1.491,0.084,2.146,0.254c0.656,0.169,1.234,0.442,1.731,0.821c0.499,0.379,0.896,0.878,1.192,1.492
	c0.297,0.615,0.465,1.364,0.51,2.245l0.004,0.095h-0.617l-0.003-0.087C69.55,26.687,69.402,26.026,69.142,25.497"/>
<rect id="SVGID_1_" x="2.5" y="6.083" fill="none" width="68" height="47.25"/>
</svg>
